<svg id="Lag_1" data-name="Lag 1" xmlns="http://www.w3.org/2000/svg" viewBox="0 0 500 500"><defs><style>.cls-1{fill:#333;}.cls-2{fill:#67a040;}.cls-3{fill:#fff;}.cls-4,.cls-5{fill:none;stroke:#67a040;stroke-miterlimit:10;}.cls-4{stroke-width:5px;}.cls-5{stroke-width:10px;}</style></defs><path class="cls-1" d="M633,742.5a248.49,248.49,0,1,1,175.72-72.78A246.9,246.9,0,0,1,633,742.5Z" transform="translate(-383 -244)"/><path class="cls-2" d="M633,247a246.28,246.28,0,1,1-96.14,19.41A245.41,245.41,0,0,1,633,247m0-3c-138.07,0-250,111.93-250,250S494.93,744,633,744,883,632.07,883,494,771.07,244,633,244Z" transform="translate(-383 -244)"/><ellipse class="cls-2" cx="249.22" cy="249.99" rx="168.72" ry="166.67"/><path class="cls-3" d="M793.25,444A168.21,168.21,0,0,0,473,444Z" transform="translate(-383 -244)"/><path class="cls-3" d="M466.17,510.66c8.42,84.22,80,150,167,150s158.55-65.78,167-150Z" transform="translate(-383 -244)"/><ellipse class="cls-3" cx="184.6" cy="233.99" rx="33.33" ry="16.67"/><ellipse class="cls-3" cx="317.94" cy="233.33" rx="33.33" ry="16.67"/><rect class="cls-2" x="89.94" y="160.66" width="320" height="6.67"/><rect class="cls-2" x="566.79" y="427.86" width="6.67" height="76.02" transform="translate(-410.44 651.99) rotate(-75)"/><rect class="cls-2" x="657.03" y="462.32" width="79.46" height="6.67" transform="translate(-479.78 -47.8) rotate(-15)"/><rect class="cls-3" x="564.27" y="424.66" width="6.67" height="66.67" transform="translate(-404.69 643.72) rotate(-75)"/><rect class="cls-3" x="667.6" y="453.99" width="66.67" height="6.67" transform="translate(-477.48 -47) rotate(-15)"/><path class="cls-4" d="M716.94,408.66Q696,358,634.27,328" transform="translate(-383 -244)"/><path class="cls-4" d="M551.6,409.33q21-50.7,82.67-80.67" transform="translate(-383 -244)"/><path class="cls-5" d="M634.27,327.33" transform="translate(-383 -244)"/><path class="cls-5" d="M715.6,408" transform="translate(-383 -244)"/><line class="cls-4" x1="250.6" y1="163.99" x2="251.27" y2="83.33"/><ellipse class="cls-2" cx="250.6" cy="336.66" rx="50" ry="33.33"/><path class="cls-1" d="M633.5,294.5c-110.46,0-200,89.54-200,200s89.54,200,200,200,200-89.54,200-200S744,294.5,633.5,294.5Zm0,366.67A166.67,166.67,0,1,1,800.17,494.5,166.67,166.67,0,0,1,633.5,661.17Z" transform="translate(-383 -244)"/><rect class="cls-3" x="90.6" y="167.33" width="320" height="33.33"/><rect class="cls-2" x="247.27" y="167.33" width="6.67" height="33.33"/><rect class="cls-2" x="165.6" y="167.33" width="6.67" height="33.33"/><rect class="cls-2" x="329.01" y="167.09" width="6.67" height="33.33"/></svg>