<svg id="Lag_1" data-name="Lag 1" xmlns="http://www.w3.org/2000/svg" viewBox="0 0 503 503"><defs><style>.cls-1{fill:#333;stroke:#67a040;stroke-miterlimit:10;stroke-width:3px;}.cls-2{fill:#67a040;}.cls-3{fill:#fff;}</style></defs><circle class="cls-1" cx="251.5" cy="251.5" r="250"/><circle class="cls-2" cx="118.17" cy="300.33" r="66.67"/><circle class="cls-2" cx="384.83" cy="300.33" r="66.67"/><circle class="cls-3" cx="118.17" cy="300.33" r="50"/><circle class="cls-3" cx="384.83" cy="300.33" r="50"/><rect class="cls-2" x="118.17" y="292.33" width="98" height="16.67"/><rect class="cls-2" x="977.4" y="490.94" width="125.33" height="16.67" transform="translate(-879.82 -11.96) rotate(-15)"/><rect class="cls-2" x="1062.83" y="527.72" width="144.18" height="16.67" transform="translate(452.11 1488.78) rotate(-120)"/><rect class="cls-2" x="972.91" y="535.85" width="160.42" height="16.67" transform="translate(-862.38 605.89) rotate(-45)"/><rect class="cls-2" x="901.87" y="521.5" width="154.67" height="16.67" transform="translate(-336.66 1210.87) rotate(-90)"/><rect class="cls-2" x="1076.54" y="466.83" width="57.33" height="16.67" transform="matrix(0, -1, 1, 0, -155.99, 1282.2)"/><polygon class="cls-2" points="226.83 154.33 167.5 154.33 167.5 137.67 226.83 145.67 226.83 154.33"/><rect class="cls-2" x="302.83" y="137" width="24.67" height="16.67"/><circle class="cls-2" cx="117.83" cy="300.67" r="8.33"/><circle class="cls-2" cx="385.17" cy="300" r="8.33"/><circle class="cls-2" cx="302.5" cy="145.33" r="8.33"/><circle class="cls-2" cx="168.5" cy="146" r="8.33"/></svg>