<svg id="Lag_1" data-name="Lag 1" xmlns="http://www.w3.org/2000/svg" viewBox="0 0 503 503"><defs><style>.cls-1{fill:#333;stroke:#67a040;stroke-miterlimit:10;stroke-width:3px;}.cls-2{fill:#67a040;}.cls-3{fill:#fff;}</style></defs><circle class="cls-1" cx="251.5" cy="251.5" r="250"/><rect class="cls-2" x="276.5" y="277.5" width="150" height="49"/><ellipse class="cls-3" cx="351.5" cy="251.65" rx="75" ry="74.85"/><ellipse class="cls-2" cx="321.5" cy="244.16" rx="15" ry="7.49"/><ellipse class="cls-2" cx="381.5" cy="244.16" rx="15" ry="7.49"/><path class="cls-3" d="M1043.31,574.7c2.21.19,4.44.3,6.69.3s4.48-.11,6.69-.3Z" transform="translate(-698.5 -248.5)"/><path class="cls-2" d="M1055.24,526.09c-4.56,0-5,5.38-5,5.5h-.16v0s-.4-5.5-5-5.5-9.91,11.12-9.91,11.12c.52,3.84,3.93,7.27,10,10.34a7.87,7.87,0,0,0,5,.88v0a8,8,0,0,0,5-.88c6.08-3.07,9.49-6.51,10-10.35C1065.15,537.2,1059.84,526.09,1055.24,526.09Z" transform="translate(-698.5 -248.5)"/><path class="cls-2" d="M1116,464.29h0l-.23-.4-.15-.28-.73-1.29c-.05-.08-.1-.17-.16-.25-.26-.46-.54-.91-.81-1.36a1,1,0,0,1-.08-.14c-1-1.53-2-3-3-4.49l0-.06c-.33-.45-.67-.91-1-1.35l-.12-.16c-.32-.43-.65-.85-1-1.27l-.12-.14c-.36-.45-.73-.9-1.1-1.34h0c-1.16-1.38-2.36-2.71-3.62-4l-.14-.15-1.08-1.08a1.14,1.14,0,0,1-.11-.11h0a75.1,75.1,0,0,0-22.5-15.17h0l-.09,0c-.54-.24-1.08-.47-1.63-.69l-.06,0-1.55-.61-.26-.1c-.53-.2-1.05-.39-1.58-.57l-.31-.11-1.33-.44-.38-.13c-.49-.16-1-.31-1.49-.45l-.53-.16-1.12-.31-.58-.16-1.33-.33-.74-.18-.87-.19-1.27-.27-.73-.14-.93-.18-.55-.09-1.74-.27-.45-.07c-1.14-.16-2.28-.29-3.44-.4l-.27,0c-1.2-.11-2.4-.19-3.61-.24h-.07c-1,0-2-.07-3.09-.07s-2.07,0-3.09.07h-.07c-1.21.05-2.41.13-3.61.24l-.27,0c-1.16.11-2.3.24-3.44.4l-.45.07-1.74.27-.55.09-.93.18-.73.14-1.27.27-.87.19-.74.18-1.33.33-.58.16-1.12.31-.53.16c-.5.14-1,.29-1.49.45l-.38.13-1.33.44-.31.11c-.53.18-1.05.37-1.58.57l-.26.1-1.55.61-.06,0c-.55.22-1.09.45-1.63.69l-.09,0h0a75.1,75.1,0,0,0-22.5,15.17h0l-.11.11-1.08,1.08-.14.15c-1.26,1.29-2.46,2.62-3.62,4h0c-.37.44-.74.89-1.1,1.34l-.12.14c-.33.42-.66.84-1,1.27l-.12.16c-.34.44-.68.9-1,1.35l0,.06c-1.06,1.46-2.06,3-3,4.49a1,1,0,0,1-.08.14c-.27.45-.55.9-.81,1.36-.06.08-.11.17-.16.25l-.73,1.29-.15.28-.23.4h0a74.34,74.34,0,0,0-9,35.56V574.4h22.5V474.28A37.52,37.52,0,0,0,1050,440v-.3h0v.3a37.52,37.52,0,0,0,52.5,34.31V574.4H1125V499.85A74.34,74.34,0,0,0,1116,464.29Z" transform="translate(-698.5 -248.5)"/><ellipse class="cls-3" cx="151.5" cy="251.35" rx="75" ry="74.85"/><ellipse class="cls-2" cx="121.5" cy="243.87" rx="15" ry="7.49"/><ellipse class="cls-2" cx="181.5" cy="243.87" rx="15" ry="7.49"/><path class="cls-2" d="M924.63,507.63H775.37a75,75,0,0,0,149.26,0Z" transform="translate(-698.5 -248.5)"/><rect class="cls-2" x="805" y="470.51" width="30" height="2.99" transform="translate(-792.6 -20.64) rotate(-14.97)"/><rect class="cls-2" x="878.5" y="457.01" width="2.99" height="30" transform="matrix(0.26, -0.97, 0.97, 0.26, -501.82, 951.7)"/><ellipse class="cls-3" cx="151.5" cy="290.27" rx="22.5" ry="14.97"/></svg>