<svg id="Lag_1" data-name="Lag 1" xmlns="http://www.w3.org/2000/svg" viewBox="0 0 503 503"><defs><style>.cls-1{fill:#333;stroke:#67a040;stroke-miterlimit:10;stroke-width:3px;}.cls-2{fill:#fff;}.cls-3{fill:#67a040;}</style></defs><circle class="cls-1" cx="251.5" cy="251.5" r="250"/><path class="cls-2" d="M564.53,575.53v15.18c0,8.39,27.19,15.18,60.73,15.18S686,599.1,686,590.71V575.53Z" transform="translate(-380.86 -244.28)"/><path class="cls-3" d="M564.53,560.35v15.18c0,8.38,27.19,15.18,60.73,15.18S686,583.91,686,575.53V560.35Z" transform="translate(-380.86 -244.28)"/><path class="cls-2" d="M564.53,545.16v15.19c0,8.38,27.19,15.18,60.73,15.18S686,568.73,686,560.35V545.16Z" transform="translate(-380.86 -244.28)"/><path class="cls-3" d="M564.53,530v15.18c0,8.39,27.19,15.19,60.73,15.19S686,553.55,686,545.16V530Z" transform="translate(-380.86 -244.28)"/><path class="cls-2" d="M564.53,514.8V530c0,8.39,27.19,15.18,60.73,15.18S686,538.37,686,530V514.8Z" transform="translate(-380.86 -244.28)"/><path class="cls-3" d="M564.53,499.62V514.8c0,8.38,27.19,15.18,60.73,15.18S686,523.18,686,514.8V499.62Z" transform="translate(-380.86 -244.28)"/><path class="cls-2" d="M564.53,484.43v15.19c0,8.38,27.19,15.18,60.73,15.18S686,508,686,499.62V484.43Z" transform="translate(-380.86 -244.28)"/><path class="cls-3" d="M564.53,469.25v15.18c0,8.39,27.19,15.19,60.73,15.19S686,492.82,686,484.43V469.25Z" transform="translate(-380.86 -244.28)"/><path class="cls-2" d="M564.53,454.07v15.18c0,8.39,27.19,15.18,60.73,15.18S686,477.64,686,469.25V454.07Z" transform="translate(-380.86 -244.28)"/><path class="cls-3" d="M564.53,438.89v15.18c0,8.39,27.19,15.18,60.73,15.18S686,462.46,686,454.07V438.89Z" transform="translate(-380.86 -244.28)"/><path class="cls-2" d="M564.53,423.71v15.18c0,8.38,27.19,15.18,60.73,15.18S686,447.27,686,438.89V423.71Z" transform="translate(-380.86 -244.28)"/><path class="cls-3" d="M564.53,408.52v15.19c0,8.38,27.19,15.18,60.73,15.18S686,432.09,686,423.71V408.52Z" transform="translate(-380.86 -244.28)"/><path class="cls-2" d="M564.53,393.34v15.18c0,8.39,27.19,15.19,60.73,15.19S686,416.91,686,408.52V393.34Z" transform="translate(-380.86 -244.28)"/><path class="cls-3" d="M564.53,378.16v15.18c0,8.39,27.19,15.18,60.73,15.18S686,401.73,686,393.34V378.16Z" transform="translate(-380.86 -244.28)"/><ellipse class="cls-2" cx="244.4" cy="133.88" rx="60.73" ry="15.18"/><path class="cls-2" d="M479.51,595.57v15.18c0,8.39,27.19,15.18,60.73,15.18S601,619.14,601,610.75V595.57Z" transform="translate(-380.86 -244.28)"/><path class="cls-3" d="M479.51,580.39v15.18c0,8.38,27.19,15.18,60.73,15.18S601,604,601,595.57V580.39Z" transform="translate(-380.86 -244.28)"/><path class="cls-2" d="M479.51,565.2v15.19c0,8.38,27.19,15.18,60.73,15.18S601,588.77,601,580.39V565.2Z" transform="translate(-380.86 -244.28)"/><path class="cls-3" d="M479.51,550V565.2c0,8.39,27.19,15.19,60.73,15.19S601,573.59,601,565.2V550Z" transform="translate(-380.86 -244.28)"/><ellipse class="cls-2" cx="159.38" cy="305.74" rx="60.73" ry="15.18"/><path class="cls-2" d="M658.06,599.21v15.18c0,8.39,27.19,15.19,60.72,15.19s60.73-6.8,60.73-15.19V599.21Z" transform="translate(-380.86 -244.28)"/><path class="cls-3" d="M658.06,584v15.18c0,8.39,27.19,15.18,60.72,15.18s60.73-6.79,60.73-15.18V584Z" transform="translate(-380.86 -244.28)"/><path class="cls-2" d="M658.06,568.85V584c0,8.39,27.19,15.18,60.72,15.18s60.73-6.79,60.73-15.18V568.85Z" transform="translate(-380.86 -244.28)"/><path class="cls-3" d="M658.06,553.67v15.18c0,8.38,27.19,15.18,60.72,15.18s60.73-6.8,60.73-15.18V553.67Z" transform="translate(-380.86 -244.28)"/><path class="cls-2" d="M658.06,538.48v15.19c0,8.38,27.19,15.18,60.72,15.18s60.73-6.8,60.73-15.18V538.48Z" transform="translate(-380.86 -244.28)"/><path class="cls-3" d="M658.06,523.3v15.18c0,8.39,27.19,15.19,60.72,15.19s60.73-6.8,60.73-15.19V523.3Z" transform="translate(-380.86 -244.28)"/><path class="cls-2" d="M658.06,508.12V523.3c0,8.39,27.19,15.18,60.72,15.18s60.73-6.79,60.73-15.18V508.12Z" transform="translate(-380.86 -244.28)"/><path class="cls-3" d="M658.06,492.94v15.18c0,8.38,27.19,15.18,60.72,15.18s60.73-6.8,60.73-15.18V492.94Z" transform="translate(-380.86 -244.28)"/><ellipse class="cls-2" cx="337.92" cy="248.66" rx="60.73" ry="15.18"/></svg>