<svg id="Lag_1" data-name="Lag 1" xmlns="http://www.w3.org/2000/svg" viewBox="0 0 825.34 742.47"><defs><style>.cls-1{fill:#67a040;}.cls-2{fill:#ac1d1f;}.cls-3{fill:#fff;}</style></defs><polygon class="cls-1" points="262.88 0.19 60.34 595.02 61.26 595.02 262.88 266.49 262.88 0.19"/><polygon class="cls-2" points="563.71 0 766.25 594.83 765.33 594.83 563.71 266.3 563.71 0"/><polygon class="cls-3" points="544.1 0.19 423.2 355.25 423.2 463.49 544.1 266.49 544.1 0.19"/><polygon class="cls-3" points="282.55 0.19 403.44 355.25 403.44 463.49 282.55 266.49 282.55 0.19"/><rect class="cls-1" x="1.25" y="624.78" width="261.63" height="9.92"/><rect class="cls-2" x="563.71" y="624.78" width="261.63" height="9.92"/><rect class="cls-3" x="282.55" y="624.78" width="261.63" height="9.92"/><path class="cls-3" d="M403.2,711.67l7.48-18.18h11.23v.75H421a3.82,3.82,0,0,0-2,.43,2,2,0,0,0-.81,1,8.37,8.37,0,0,0-.22,2.55v18.18a9,9,0,0,0,.22,2.64,2,2,0,0,0,.92.93,3.73,3.73,0,0,0,1.85.4h.89v.75h-14.4v-.75h.9a3.91,3.91,0,0,0,1.95-.43,2,2,0,0,0,.81-1,8.24,8.24,0,0,0,.23-2.56V695.91l-10.58,25.16h-.49l-10.74-25v19.43a18.59,18.59,0,0,0,.1,2.5,2.93,2.93,0,0,0,1.15,1.66,4.85,4.85,0,0,0,2.78.64v.75h-9.44v-.75h.29a4.4,4.4,0,0,0,1.71-.3,2.87,2.87,0,0,0,1.2-.84,4,4,0,0,0,.63-1.49c0-.15,0-.84,0-2.07V698.17a8.78,8.78,0,0,0-.23-2.62,2,2,0,0,0-.91-.91,3.65,3.65,0,0,0-1.85-.4h-.88v-.75h11.27Z" transform="translate(-342.82 -22)"/><path class="cls-3" d="M440,713.22h-9.74l-1.16,2.68a6,6,0,0,0-.57,2.22,1.84,1.84,0,0,0,.94,1.71,7.78,7.78,0,0,0,2.7.49v.75H423v-.75a4.07,4.07,0,0,0,2.44-1.24,16.31,16.31,0,0,0,2.36-4.15l9.86-22H438L448,715.54a13.67,13.67,0,0,0,2.34,4,3.2,3.2,0,0,0,1.95.74v.75H438.94v-.75h.54a4.14,4.14,0,0,0,2.26-.45,1.09,1.09,0,0,0,.45-.94,2.55,2.55,0,0,0-.12-.75c0-.12-.23-.63-.61-1.52Zm-.69-1.51-4.11-9.5-4.23,9.5Z" transform="translate(-342.82 -22)"/><path class="cls-3" d="M463.81,708.5v7.73a8.21,8.21,0,0,0,.28,2.81,2,2,0,0,0,1,.93,6.48,6.48,0,0,0,2.58.35v.75H453.52v-.75a6.25,6.25,0,0,0,2.59-.36,2.06,2.06,0,0,0,1-.93,8.52,8.52,0,0,0,.27-2.8v-17.9a8.71,8.71,0,0,0-.27-2.82,2,2,0,0,0-1-.92,6.48,6.48,0,0,0-2.58-.35v-.75h12.81a28.09,28.09,0,0,1,7.33.69,7.4,7.4,0,0,1,3.78,2.55,6.89,6.89,0,0,1,1.46,4.36,6.53,6.53,0,0,1-2.19,5,9.14,9.14,0,0,1-3.93,1.89l6.63,9.34a14.34,14.34,0,0,0,1.85,2.25,3.46,3.46,0,0,0,1.93.7v.75h-8.68l-8.89-12.57Zm0-13.53v12.09H465a13.07,13.07,0,0,0,4.23-.52,4.22,4.22,0,0,0,2.21-1.88,6.87,6.87,0,0,0,.8-3.52,6.43,6.43,0,0,0-1.47-4.66c-1-1-2.57-1.51-4.75-1.51Z" transform="translate(-342.82 -22)"/><path class="cls-3" d="M500.16,713.22h-9.75l-1.15,2.68a6,6,0,0,0-.57,2.22,1.85,1.85,0,0,0,.93,1.71,7.86,7.86,0,0,0,2.71.49v.75h-9.18v-.75a4,4,0,0,0,2.44-1.24,16,16,0,0,0,2.36-4.15l9.87-22h.39l9.94,22.62a13.67,13.67,0,0,0,2.34,4,3.2,3.2,0,0,0,2,.74v.75H499.1v-.75h.55a4.19,4.19,0,0,0,2.26-.45,1.08,1.08,0,0,0,.44-.94,2.55,2.55,0,0,0-.12-.75,16.05,16.05,0,0,0-.61-1.52Zm-.69-1.51-4.11-9.5-4.23,9.5Z" transform="translate(-342.82 -22)"/><path class="cls-3" d="M537.2,693.49v.75a4.46,4.46,0,0,0-2.69,1.61,24.5,24.5,0,0,0-2.54,4.78l-9.5,21.07h-.67l-9.46-21.93a28.29,28.29,0,0,0-2.29-4.66,3.24,3.24,0,0,0-2.18-.87v-.75h13.22v.75h-.45a4.62,4.62,0,0,0-2.44.45,1,1,0,0,0-.47.89,3.17,3.17,0,0,0,.16.87c.11.33.48,1.22,1.1,2.67l5.88,13.73,5.45-12.22q1-2.22,1.2-3a4.57,4.57,0,0,0,.22-1.28,1.81,1.81,0,0,0-.32-1.08,2,2,0,0,0-1-.71,6.4,6.4,0,0,0-2.32-.35v-.75Z" transform="translate(-342.82 -22)"/><path class="cls-3" d="M549,695.07V706.3h.55a4.37,4.37,0,0,0,3.81-1.65,10.18,10.18,0,0,0,1.5-4.86h.77v14.44h-.77a10.77,10.77,0,0,0-1-3.86,4.4,4.4,0,0,0-1.82-2,6.84,6.84,0,0,0-3-.52v7.77a10.94,10.94,0,0,0,.2,2.78,1.61,1.61,0,0,0,.72.84,3.36,3.36,0,0,0,1.71.32h1.64a8.88,8.88,0,0,0,9.54-7.24h.76l-1.25,8.77H538.46v-.75h.91a3.83,3.83,0,0,0,1.93-.43,1.84,1.84,0,0,0,.82-1,8.37,8.37,0,0,0,.22-2.56V698.21a14.23,14.23,0,0,0-.1-2.3,2,2,0,0,0-.75-1.1,3.51,3.51,0,0,0-2.12-.57h-.91v-.75h23.08v8.15h-.77a10,10,0,0,0-1.66-4.29,6.16,6.16,0,0,0-3-1.91,16.47,16.47,0,0,0-4.27-.37Z" transform="translate(-342.82 -22)"/><path class="cls-3" d="M591.7,711.39l-1,9.68H566.18v-.75h.92a3.88,3.88,0,0,0,1.93-.43,1.87,1.87,0,0,0,.81-1,8.37,8.37,0,0,0,.22-2.56V698.21a9.13,9.13,0,0,0-.22-2.65,2,2,0,0,0-.9-.92,3.61,3.61,0,0,0-1.84-.4h-.92v-.75h14.7v.75h-1.19a3.79,3.79,0,0,0-1.94.43,1.92,1.92,0,0,0-.83,1,8.45,8.45,0,0,0-.22,2.57v17.57a9,9,0,0,0,.24,2.69,1.6,1.6,0,0,0,1,.87,9.79,9.79,0,0,0,2.46.18h2.29a7.89,7.89,0,0,0,3.67-.77,6.9,6.9,0,0,0,2.53-2.44,19.9,19.9,0,0,0,2-4.92Z" transform="translate(-342.82 -22)"/><path class="cls-3" d="M609.28,693.1a13.7,13.7,0,0,1,14.83,14.08,14.71,14.71,0,0,1-3.08,9.23q-4.06,5.3-11.49,5.29t-11.51-5a14.64,14.64,0,0,1-3.21-9.46A13.73,13.73,0,0,1,599,697,13.28,13.28,0,0,1,609.28,693.1Zm.24,1.3q-3.78,0-5.75,3.87-1.6,3.16-1.61,9.11,0,7.07,2.48,10.43a5.64,5.64,0,0,0,4.84,2.36,5.84,5.84,0,0,0,3.5-1,8.45,8.45,0,0,0,2.79-4.16,23.29,23.29,0,0,0,1-7.46,25,25,0,0,0-1-8.18,8,8,0,0,0-2.6-3.84A6.15,6.15,0,0,0,609.52,694.4Z" transform="translate(-342.82 -22)"/><path class="cls-3" d="M647.39,707.81v8.54a8.44,8.44,0,0,0,.24,2.64,2.07,2.07,0,0,0,.91.93,3.73,3.73,0,0,0,1.85.4h.91v.75H636.88v-.75h.91a3.9,3.9,0,0,0,1.94-.43,1.87,1.87,0,0,0,.81-1,8.37,8.37,0,0,0,.22-2.56V698.21a9.13,9.13,0,0,0-.22-2.65,2,2,0,0,0-.91-.92,3.56,3.56,0,0,0-1.84-.4h-.91v-.75H651.3v.75h-.91a3.77,3.77,0,0,0-1.94.43,1.92,1.92,0,0,0-.83,1,8.32,8.32,0,0,0-.23,2.57V706h9.75v-7.81a9,9,0,0,0-.23-2.65,2,2,0,0,0-.91-.92,3.65,3.65,0,0,0-1.85-.4h-.9v-.75h14.4v.75h-.89a3.72,3.72,0,0,0-1.94.43,1.92,1.92,0,0,0-.83,1,8.45,8.45,0,0,0-.22,2.57v18.14A9,9,0,0,0,664,719a2,2,0,0,0,.92.93,3.73,3.73,0,0,0,1.85.4h.89v.75h-14.4v-.75h.9a3.81,3.81,0,0,0,1.93-.43,2,2,0,0,0,.83-1,8.24,8.24,0,0,0,.23-2.56v-8.54Z" transform="translate(-342.82 -22)"/><path class="cls-3" d="M698,693.49v.75a4.13,4.13,0,0,0-2.1.79,21.89,21.89,0,0,0-3.21,4.66l-6,10v6.67A8.89,8.89,0,0,0,687,719a2,2,0,0,0,.88.92,3.45,3.45,0,0,0,1.76.4h1.55v.75H675.67v-.75h1.44a3.78,3.78,0,0,0,1.93-.43,2,2,0,0,0,.84-1,8.37,8.37,0,0,0,.22-2.56v-5.53L673.61,699a17.71,17.71,0,0,0-2.72-4.12,3.45,3.45,0,0,0-2.12-.64v-.75H682v.75h-.59a3,3,0,0,0-1.68.35,1,1,0,0,0-.47.73,12.3,12.3,0,0,0,1.62,3.68l5,9.13,5-8.32c1.23-2,1.85-3.38,1.85-4a1.1,1.1,0,0,0-.53-.92,5,5,0,0,0-2.54-.61v-.75Z" transform="translate(-342.82 -22)"/><path class="cls-3" d="M717,706.44a14.24,14.24,0,0,1,5.51,2.22,5.89,5.89,0,0,1,2.28,4.8,6.38,6.38,0,0,1-2.5,5.15q-3.07,2.46-8.93,2.46h-14v-.75A6.22,6.22,0,0,0,702,720a2.06,2.06,0,0,0,1-.93,8.42,8.42,0,0,0,.28-2.8v-17.9a8.61,8.61,0,0,0-.28-2.82,1.94,1.94,0,0,0-1-.92,6.48,6.48,0,0,0-2.58-.35v-.75h13.22a18.92,18.92,0,0,1,6.72.84,7,7,0,0,1,3.11,2.52,6.25,6.25,0,0,1,1.14,3.57A5.1,5.1,0,0,1,722.1,704,10.34,10.34,0,0,1,717,706.44Zm-7.41,1v8.85l0,1a2,2,0,0,0,2.22,2.21,6.39,6.39,0,0,0,3-.72,4.87,4.87,0,0,0,2.1-2.09,6.42,6.42,0,0,0,.74-3.07,6.71,6.71,0,0,0-.9-3.46,4.81,4.81,0,0,0-2.46-2.15A13.34,13.34,0,0,0,709.61,707.48Zm0-1.59a10.35,10.35,0,0,0,4.26-.65,4.8,4.8,0,0,0,2.11-1.83,6.59,6.59,0,0,0,0-6,4.61,4.61,0,0,0-2.06-1.78,11.23,11.23,0,0,0-4.32-.59Z" transform="translate(-342.82 -22)"/><path class="cls-3" d="M737.34,708.5v7.73a8.6,8.6,0,0,0,.27,2.81,2,2,0,0,0,1,.93,6.48,6.48,0,0,0,2.58.35v.75H727.05v-.75a6.28,6.28,0,0,0,2.59-.36,2.09,2.09,0,0,0,1-.93,8.14,8.14,0,0,0,.28-2.8v-17.9a8.33,8.33,0,0,0-.28-2.82,2,2,0,0,0-1-.92,6.48,6.48,0,0,0-2.58-.35v-.75h12.81a28,28,0,0,1,7.32.69,7.32,7.32,0,0,1,3.78,2.55,6.84,6.84,0,0,1,1.47,4.36,6.51,6.51,0,0,1-2.2,5,9,9,0,0,1-3.92,1.89l6.63,9.34a13.26,13.26,0,0,0,1.85,2.25,3.43,3.43,0,0,0,1.93.7v.75H748l-8.89-12.57Zm0-13.53v12.09h1.16a13.15,13.15,0,0,0,4.23-.52,4.2,4.2,0,0,0,2.2-1.88,6.77,6.77,0,0,0,.81-3.52,6.39,6.39,0,0,0-1.48-4.66c-1-1-2.56-1.51-4.75-1.51Z" transform="translate(-342.82 -22)"/><path class="cls-3" d="M771.61,720.32v.75H757.19v-.75h.91a3.83,3.83,0,0,0,1.93-.43,1.84,1.84,0,0,0,.82-1,8.37,8.37,0,0,0,.22-2.56V698.21a9.13,9.13,0,0,0-.22-2.65,2,2,0,0,0-.91-.92,3.56,3.56,0,0,0-1.84-.4h-.91v-.75h14.42v.75h-.92a3.75,3.75,0,0,0-1.93.43,1.92,1.92,0,0,0-.83,1,8.32,8.32,0,0,0-.23,2.57v18.14a8.44,8.44,0,0,0,.24,2.64,2.07,2.07,0,0,0,.91.93,3.72,3.72,0,0,0,1.84.4Z" transform="translate(-342.82 -22)"/><path class="cls-3" d="M773.12,721.07v-.75H774a3.69,3.69,0,0,0,1.84-.38,2.31,2.31,0,0,0,1-1,9.85,9.85,0,0,0,.18-2.56V698.21a9.52,9.52,0,0,0-.22-2.65,2,2,0,0,0-.91-.92,3.59,3.59,0,0,0-1.84-.4h-.91v-.75h12.34a19.8,19.8,0,0,1,7.95,1.34,11.78,11.78,0,0,1,5.59,5,15.07,15.07,0,0,1,1.9,7.55,14.8,14.8,0,0,1-.94,5.36,12.35,12.35,0,0,1-2.42,4,11.89,11.89,0,0,1-3.42,2.56,18.47,18.47,0,0,1-4.75,1.49,21.55,21.55,0,0,1-3.91.25Zm10.51-26v21.52a7.61,7.61,0,0,0,.16,2.1,1.17,1.17,0,0,0,.55.59,3.4,3.4,0,0,0,1.59.3,6.17,6.17,0,0,0,5.19-2.32q2.43-3.12,2.44-9.72a18.3,18.3,0,0,0-1.67-8.48,7.06,7.06,0,0,0-3.4-3.37A13,13,0,0,0,783.63,695.05Z" transform="translate(-342.82 -22)"/><path class="cls-3" d="M831.59,706.44a14.18,14.18,0,0,1,5.51,2.22,5.89,5.89,0,0,1,2.28,4.8,6.38,6.38,0,0,1-2.5,5.15q-3.07,2.46-8.93,2.46h-14v-.75a6.28,6.28,0,0,0,2.59-.36,2.09,2.09,0,0,0,1-.93,8.14,8.14,0,0,0,.28-2.8v-17.9a8.33,8.33,0,0,0-.28-2.82,2,2,0,0,0-1-.92,6.48,6.48,0,0,0-2.58-.35v-.75h13.21a18.92,18.92,0,0,1,6.72.84,7,7,0,0,1,3.11,2.52,6.25,6.25,0,0,1,1.14,3.57,5.05,5.05,0,0,1-1.45,3.55A10.3,10.3,0,0,1,831.59,706.44Zm-7.4,1v8.85l0,1a2,2,0,0,0,2.21,2.21,6.33,6.33,0,0,0,3-.72,5,5,0,0,0,2.11-2.09,6.41,6.41,0,0,0,.73-3.07,6.8,6.8,0,0,0-.89-3.46,4.83,4.83,0,0,0-2.47-2.15A13.32,13.32,0,0,0,824.19,707.48Zm0-1.59a10.41,10.41,0,0,0,4.26-.65,4.83,4.83,0,0,0,2.1-1.83,6.59,6.59,0,0,0,0-6,4.61,4.61,0,0,0-2.06-1.78,11.21,11.21,0,0,0-4.31-.59Z" transform="translate(-342.82 -22)"/><path class="cls-3" d="M856.1,720.32v.75H841.68v-.75h.91a3.83,3.83,0,0,0,1.93-.43,1.84,1.84,0,0,0,.82-1,8.37,8.37,0,0,0,.22-2.56V698.21a9.13,9.13,0,0,0-.22-2.65,2,2,0,0,0-.91-.92,3.56,3.56,0,0,0-1.84-.4h-.91v-.75H856.1v.75h-.92a3.75,3.75,0,0,0-1.93.43,1.92,1.92,0,0,0-.83,1,8.32,8.32,0,0,0-.23,2.57v18.14a8.44,8.44,0,0,0,.24,2.64,2.07,2.07,0,0,0,.91.93,3.72,3.72,0,0,0,1.84.4Z" transform="translate(-342.82 -22)"/><path class="cls-3" d="M884.86,692.86v9.56h-.8a10.12,10.12,0,0,0-3.33-5.74,8.5,8.5,0,0,0-5.53-2,8.14,8.14,0,0,0-4.74,1.48,8.71,8.71,0,0,0-3.16,3.89,17.65,17.65,0,0,0-1.28,6.83,22.59,22.59,0,0,0,.94,6.74,9,9,0,0,0,2.93,4.6,8.13,8.13,0,0,0,5.16,1.56,10.06,10.06,0,0,0,4.77-1.14,16.41,16.41,0,0,0,4.57-3.93v2.38a15.14,15.14,0,0,1-4.83,3.51,14.57,14.57,0,0,1-5.87,1.09,16.86,16.86,0,0,1-7.84-1.77,12.55,12.55,0,0,1-5.29-5.09,14.19,14.19,0,0,1-1.86-7.05,14.62,14.62,0,0,1,2.07-7.49,14.47,14.47,0,0,1,5.57-5.49,15.1,15.1,0,0,1,7.45-1.95,16.89,16.89,0,0,1,6.14,1.26,9.36,9.36,0,0,0,2.39.73,1.51,1.51,0,0,0,1.12-.48,2.55,2.55,0,0,0,.62-1.51Z" transform="translate(-342.82 -22)"/><path class="cls-3" d="M916.75,693.49v.75a4.06,4.06,0,0,0-2.09.79,21.42,21.42,0,0,0-3.22,4.66l-6,10v6.67a8.89,8.89,0,0,0,.23,2.65,2.08,2.08,0,0,0,.88.92,3.45,3.45,0,0,0,1.76.4h1.55v.75H894.4v-.75h1.44a3.82,3.82,0,0,0,1.94-.43,2,2,0,0,0,.83-1,8.37,8.37,0,0,0,.22-2.56v-5.53L892.34,699a17.38,17.38,0,0,0-2.72-4.12,3.45,3.45,0,0,0-2.12-.64v-.75h13.22v.75h-.59a2.94,2.94,0,0,0-1.67.35.94.94,0,0,0-.48.73A12.3,12.3,0,0,0,899.6,699l5,9.13,5-8.32c1.23-2,1.85-3.38,1.85-4a1.1,1.1,0,0,0-.53-.92,5,5,0,0,0-2.54-.61v-.75Z" transform="translate(-342.82 -22)"/><path class="cls-3" d="M945,692.86v9.56h-.79a10.24,10.24,0,0,0-3.33-5.74,8.53,8.53,0,0,0-5.54-2,8.18,8.18,0,0,0-4.74,1.48,8.75,8.75,0,0,0-3.15,3.89,17.65,17.65,0,0,0-1.28,6.83,22.59,22.59,0,0,0,.94,6.74,8.89,8.89,0,0,0,2.93,4.6,8.09,8.09,0,0,0,5.16,1.56,10.06,10.06,0,0,0,4.77-1.14,16.55,16.55,0,0,0,4.57-3.93v2.38a15.14,15.14,0,0,1-4.83,3.51,14.64,14.64,0,0,1-5.87,1.09,16.83,16.83,0,0,1-7.84-1.77,12.49,12.49,0,0,1-5.29-5.09,14.19,14.19,0,0,1-1.86-7.05,15,15,0,0,1,7.63-13,15.14,15.14,0,0,1,7.46-1.95,16.89,16.89,0,0,1,6.14,1.26,9.34,9.34,0,0,0,2.38.73,1.54,1.54,0,0,0,1.13-.48,2.55,2.55,0,0,0,.62-1.51Z" transform="translate(-342.82 -22)"/><path class="cls-3" d="M973.6,711.39l-1,9.68H948.07v-.75H949a3.86,3.86,0,0,0,1.93-.43,1.89,1.89,0,0,0,.82-1,8.72,8.72,0,0,0,.22-2.56V698.21a9.52,9.52,0,0,0-.22-2.65,2.06,2.06,0,0,0-.91-.92,3.59,3.59,0,0,0-1.84-.4h-.92v-.75h14.71v.75h-1.2a3.75,3.75,0,0,0-1.93.43,1.94,1.94,0,0,0-.84,1,8.45,8.45,0,0,0-.22,2.57v17.57a9,9,0,0,0,.24,2.69,1.63,1.63,0,0,0,1,.87,9.84,9.84,0,0,0,2.46.18h2.3a7.87,7.87,0,0,0,3.66-.77,6.83,6.83,0,0,0,2.53-2.44,19.86,19.86,0,0,0,2-4.92Z" transform="translate(-342.82 -22)"/><path class="cls-3" d="M986.43,695.07V706.3H987a4.37,4.37,0,0,0,3.81-1.65,10.07,10.07,0,0,0,1.5-4.86h.77v14.44h-.77a10.78,10.78,0,0,0-1-3.86,4.41,4.41,0,0,0-1.83-2,6.84,6.84,0,0,0-3-.52v7.77a10.94,10.94,0,0,0,.2,2.78,1.71,1.71,0,0,0,.72.84,3.36,3.36,0,0,0,1.71.32h1.65a8.88,8.88,0,0,0,9.53-7.24h.76l-1.24,8.77H975.92v-.75h.91a3.9,3.9,0,0,0,1.94-.43,1.87,1.87,0,0,0,.81-1,8.37,8.37,0,0,0,.22-2.56V698.21a14.23,14.23,0,0,0-.1-2.3,1.89,1.89,0,0,0-.75-1.1,3.51,3.51,0,0,0-2.12-.57h-.91v-.75H999v8.15h-.77a9.82,9.82,0,0,0-1.66-4.29,6.16,6.16,0,0,0-3-1.91,16.47,16.47,0,0,0-4.27-.37Z" transform="translate(-342.82 -22)"/><path class="cls-3" d="M1041.09,692.86v9.56h-.8a10.18,10.18,0,0,0-3.33-5.74,8.5,8.5,0,0,0-5.53-2,8.14,8.14,0,0,0-4.74,1.48,8.71,8.71,0,0,0-3.16,3.89,17.65,17.65,0,0,0-1.28,6.83,22.59,22.59,0,0,0,.94,6.74,9,9,0,0,0,2.93,4.6,8.11,8.11,0,0,0,5.16,1.56,10.06,10.06,0,0,0,4.77-1.14,16.41,16.41,0,0,0,4.57-3.93v2.38a15.14,15.14,0,0,1-4.83,3.51,14.61,14.61,0,0,1-5.87,1.09,16.83,16.83,0,0,1-7.84-1.77,12.49,12.49,0,0,1-5.29-5.09,14.19,14.19,0,0,1-1.86-7.05,15,15,0,0,1,7.64-13,15.1,15.1,0,0,1,7.45-1.95,16.89,16.89,0,0,1,6.14,1.26,9.45,9.45,0,0,0,2.38.73,1.54,1.54,0,0,0,1.13-.48,2.55,2.55,0,0,0,.62-1.51Z" transform="translate(-342.82 -22)"/><path class="cls-3" d="M1069.66,711.39l-1,9.68h-24.49v-.75h.91a3.83,3.83,0,0,0,1.93-.43,1.84,1.84,0,0,0,.82-1,8.37,8.37,0,0,0,.22-2.56V698.21a9.13,9.13,0,0,0-.22-2.65,2,2,0,0,0-.91-.92,3.59,3.59,0,0,0-1.84-.4h-.91v-.75h14.7v.75h-1.2a3.75,3.75,0,0,0-1.93.43,1.92,1.92,0,0,0-.83,1,8.32,8.32,0,0,0-.23,2.57v17.57a8.53,8.53,0,0,0,.25,2.69,1.61,1.61,0,0,0,.95.87,9.84,9.84,0,0,0,2.46.18h2.3a7.81,7.81,0,0,0,3.66-.77,6.83,6.83,0,0,0,2.53-2.44,19.48,19.48,0,0,0,2-4.92Z" transform="translate(-342.82 -22)"/><path class="cls-3" d="M1072.13,693.49h14.23v.75h-.71a4.91,4.91,0,0,0-2.21.34,1.89,1.89,0,0,0-.85.92,10,10,0,0,0-.25,3V712a13.59,13.59,0,0,0,.56,4.9,4.6,4.6,0,0,0,1.84,2,6,6,0,0,0,3.23.79,6.93,6.93,0,0,0,3.81-1,6.18,6.18,0,0,0,2.36-2.78,16.64,16.64,0,0,0,.79-6.16V698.45a6.45,6.45,0,0,0-.39-2.64,2.28,2.28,0,0,0-1-1.1,5.8,5.8,0,0,0-2.58-.47v-.75h9.54v.75H1100a3.68,3.68,0,0,0-1.93.47,2.63,2.63,0,0,0-1.12,1.4,6.94,6.94,0,0,0-.27,2.34v10.48a27,27,0,0,1-.64,7,7.76,7.76,0,0,1-3.12,4,11.31,11.31,0,0,1-6.77,1.81,12.8,12.8,0,0,1-5.53-1,8.15,8.15,0,0,1-3.77-3.33,11.6,11.6,0,0,1-1.09-5.47V698.45a9.38,9.38,0,0,0-.27-3,2.09,2.09,0,0,0-.91-.93,5.84,5.84,0,0,0-2.4-.32Z" transform="translate(-342.82 -22)"/><path class="cls-3" d="M1119.76,706.44a14.18,14.18,0,0,1,5.51,2.22,5.89,5.89,0,0,1,2.28,4.8,6.38,6.38,0,0,1-2.5,5.15q-3.08,2.46-8.93,2.46h-14v-.75a6.28,6.28,0,0,0,2.59-.36,2.09,2.09,0,0,0,1-.93,8.14,8.14,0,0,0,.28-2.8v-17.9a8.33,8.33,0,0,0-.28-2.82,2,2,0,0,0-1-.92,6.51,6.51,0,0,0-2.58-.35v-.75h13.21a18.92,18.92,0,0,1,6.72.84,7,7,0,0,1,3.11,2.52,6.25,6.25,0,0,1,1.14,3.57,5.05,5.05,0,0,1-1.45,3.55A10.3,10.3,0,0,1,1119.76,706.44Zm-7.4,1v8.85l0,1a2,2,0,0,0,2.21,2.21,6.33,6.33,0,0,0,3-.72,5,5,0,0,0,2.11-2.09,6.41,6.41,0,0,0,.73-3.07,6.8,6.8,0,0,0-.89-3.46,4.83,4.83,0,0,0-2.47-2.15A13.32,13.32,0,0,0,1112.36,707.48Zm0-1.59a10.41,10.41,0,0,0,4.26-.65,4.83,4.83,0,0,0,2.1-1.83,6.59,6.59,0,0,0,0-6,4.61,4.61,0,0,0-2.06-1.78,11.21,11.21,0,0,0-4.31-.59Z" transform="translate(-342.82 -22)"/><rect class="cls-1" y="732.55" width="261.63" height="9.92"/><rect class="cls-2" x="562.46" y="732.55" width="261.63" height="9.92"/><rect class="cls-3" x="281.29" y="732.55" width="261.63" height="9.92"/></svg>